[img]http://img813.imageshack.us/img813/6007/cowy.jpg[/img]

[code]
     Cowboys And Aliens 2011 720p TS XViD - IMAGiNE                                                                
******************************************************************************************

Ripper ...........: IMAGiNE              IMDB Rating.......: 7.8/10                             
Video Codec.......: XViD                 Release Date......: 01/08/11
Audio Codec.......: MP3                  Theatre Date......: 29/07/11
Audio Bitrate.....: 128                  Runtime...........: 1h 53mn
Subtitles.........: NIL                  Language..........: ENGLISH
Resolution........: 1280 x 544            IMDb URL..........: http://www.imdb.com/title/tt0409847/


DETAILS:

Video
ID                               : 0
Format                           : MPEG-4 Visual
Format profile                   : Advanced Simple@L5
Format settings, BVOP            : 2
Format settings, QPel            : No
Format settings, GMC             : No warppoints
Format settings, Matrix          : Default (MPEG)
Muxing mode                      : Packed bitstream
Codec ID                         : XVID
Codec ID/Hint                    : XviD
Duration                         : 1h 53mn
Bit rate                         : 3 525 Kbps
Width                            : 1 280 pixels
Height                           : 544 pixels
Display aspect ratio             : 2.35:1
Frame rate                       : 29.970 fps
Color space                      : YUV
Chroma subsampling               : 4:2:0
Bit depth                        : 8 bits
Scan type                        : Progressive
Compression mode                 : Lossy
Bits/(Pixel*Frame)               : 0.169
Stream size                      : 2.80 GiB (96%)
Writing library                  : XviD 64

Audio
ID                               : 1
Format                           : MPEG Audio
Format version                   : Version 1
Format profile                   : Layer 3
Mode                             : Joint stereo
Mode extension                   : MS Stereo
Codec ID                         : 55
Codec ID/Hint                    : MP3
Duration                         : 1h 53mn
Bit rate mode                    : Constant
Bit rate                         : 128 Kbps
Channel(s)                       : 2 channels
Sampling rate                    : 44.1 KHz
Compression mode                 : Lossy
Stream size                      : 104 MiB (3%)
Alignment                        : Split accross interleaves
Interleave, duration             : 33 ms (1.00 video frame)
Interleave, preload duration     : 500 ms


SOURCES:

VIDEO:Thanks m8ty
AUDIO:Thanks m8ty

NOTES:


Same work sone as our lower res xvid,but this time we keep a higher res and bitrate 
No its not upscaled....for those that want to know.
Res on original files after rotating and cropping was 1652 x 720 ....so thought we'd do a nice
720p aswell.

Enjoy ....oh and yeah dark scenes are still dark and will be on anyones encode.

[/code]
Screens:
[img]http://img204.imageshack.us/img204/5995/35834679.jpg[/img]
[img]http://img402.imageshack.us/img402/4605/93071475.jpg[/img]
[img]http://img10.imageshack.us/img10/6335/93218715.jpg[/img]
[img]http://img40.imageshack.us/img40/2205/36004120.jpg[/img]